<?xml version="1.0" standalone="no"?>
<!DOCTYPE svg PUBLIC "-//W3C//DTD SVG 1.1//EN" "http://www.w3.org/Graphics/SVG/1.1/DTD/svg11.dtd">
<svg xmlns="http://www.w3.org/2000/svg">
<metadata>Generated by Fontastic.me</metadata>
<defs>
<font id="facilities" horiz-adv-x="512">
<font-face font-family="facilities" units-per-em="512" ascent="480" descent="-32"/>
<missing-glyph horiz-adv-x="512" />

<glyph unicode="&#98;" d="M149 172l30-30c20 20 47 32 77 32 30 0 57-12 77-32l30 30c-27 28-65 45-107 45-42 0-80-17-107-45z m-69 69l30-30c38 37 89 60 146 60 57 0 108-23 146-60l30 30c-45 45-107 73-176 73-69 0-131-28-176-73z m176 170c-96 0-182-38-245-101l31-30c55 55 130 89 214 89 84 0 159-34 214-89l31 30c-63 63-149 101-245 101z m0-283c-18 0-32-14-32-32 0-18 14-32 32-32 18 0 32 14 32 32 0 18-14 32-32 32z"/>
<glyph unicode="&#106;" d="M204 384l60-60c0 0 0 0 1-1l0 0 0 0c2-1 4-2 7-2 5 0 10 4 10 10 0 4-2 7-5 9l-60 60c-2 2-4 3-8 3-5 0-10-4-10-10 0-4 2-7 5-9z m68-209l0 129-138 0c-1 0-2-1-2-1l-56 33 0 0c-2 0-4 1-6 1-8 0-14-6-14-13 0-5 3-9 6-11l0 0 57-33c-2-10-3-22-3-34 0-27 5-50 13-56l-32-56c-2-3-4-7-4-11 0-10 8-18 18-18 6 0 11 3 15 7l0 0 37 65 38-65 0 0c4-4 9-7 14-7 10 0 18 8 18 18 0 4-1 8-3 11l-25 42c13-1 27-1 41-1 9 0 17 0 26 0z m90 14c6 3 11 15 13 32l-83 83 0-116-31-54c-2-3-4-7-4-11 0-10 8-18 18-18 6 0 11 3 14 7l1 0 37 65 38-65 0 0c3-4 8-7 14-7 10 0 18 8 18 18 0 4-1 8-4 11z m94 110c0 4-2 8-6 10l-20 20 0 21c0 8-4 14-11 18l-26 15 0-1c-2 2-4 3-7 3l-12 22-26-45-42-42 71-72c0 6 0 11-1 16l14 14 51 0 0 0 11 11 0 0c2 3 4 6 4 10z"/>
<glyph unicode="&#107;" d="M68 350c-6-5-12-7-19-6-7 1-12 4-17 9-5 5-7 11-6 19 0 7 3 13 9 18 16 14 30 24 40 31 11 7 26 14 46 20 20 7 42 8 66 2 24-5 51-16 81-33 30-17 57-27 80-28 23-1 40 2 51 9 11 6 26 18 45 34 13 10 25 9 36-3 11-14 10-26-3-37-41-38-81-56-120-56-34 0-72 12-113 36-23 13-44 21-61 26-18 5-33 5-48 0-14-5-25-10-33-15-8-5-19-14-34-26m376-56c13 11 25 10 36-3 11-14 10-26-3-37-13-12-25-21-33-27-9-7-21-13-37-20-16-6-33-9-50-9-32 0-70 12-113 35-23 13-44 22-61 27-18 5-33 5-48 0-14-5-25-10-33-15-8-5-19-14-34-26-5-5-11-7-18-6-8 1-13 4-18 9-11 14-10 26 3 37 13 12 23 20 31 26 7 5 19 12 35 19 16 8 31 12 45 12 14 0 32-2 54-8 22-5 44-15 68-28 24-13 44-22 61-27 18-5 33-5 48 0 14 5 25 10 33 15 8 5 19 14 34 26m0-131c13 11 25 10 36-3 5-5 7-11 6-19 0-7-3-13-9-18-13-12-25-21-33-27-9-7-21-13-37-20-16-6-33-9-50-9-32 0-70 12-113 35-23 13-44 22-61 27-18 5-33 5-48 1-14-5-25-10-34-15-8-6-19-15-33-27-5-5-11-7-18-6-8 1-13 4-18 9-11 14-10 26 3 37 13 12 23 20 31 26 7 5 19 12 35 19 16 8 31 11 45 12 14 0 32-2 54-8 22-5 44-15 68-29 24-12 44-21 61-26 18-5 33-5 48 0 14 5 25 10 33 15 8 5 19 14 34 26"/>
<glyph unicode="&#109;" d="M384 192c96 0 128 32 128 32 0 64-32 96-32 96-44-29-95-45-137-54 16 8 32 19 49 35 68 68 68 113 68 113-46 46-91 46-91 46-10-52-35-99-59-135 6 16 10 36 10 59 0 96-32 128-32 128-64 0-96-32-96-32 29-44 45-95 54-137-8 16-19 32-35 49-68 68-113 68-113 68-46-46-46-91-46-91 52-10 99-35 135-59-16 6-36 10-59 10-96 0-128-32-128-32 0-64 32-96 32-96 44 29 95 45 137 54-16-8-32-19-49-35-68-68-68-113-68-113 46-46 91-46 91-46 10 52 35 99 59 135-6-16-10-36-10-59 0-96 32-128 32-128 64 0 96 32 96 32-29 44-45 95-54 137 8-16 19-32 35-49 68-68 113-68 113-68 46 46 46 91 46 91-52 10-99 35-135 59 16-6 36-10 59-10z m-128 64z m0 0z m0 0z m0 0z"/>
<glyph unicode="&#111;" d="M235 459c-11 0-11-11-11-11l0-96c0 0 0-11-11-11-10 0-10 11-10 11l0 96c0 0 0 11-11 11-11 0-11-11-11-11l0-96c0 0 0-11-10-11-11 0-11 11-11 11l0 96c0 0 0 11-11 11-10 0-10-11-10-11l0-128c0-11 5-21 16-32 10-11 5-21 5-32l0-32-5-139c-1-10 13-32 34-32 22 0 29 22 28 32l-14 139 0 32c0 10 5 21 16 32 10 10 26 21 26 32l0 128c0 0 0 11-10 11z m64-32c-11-22-11-75-11-96l0-107c0-11 11-21 21-21l22 0 0-128c0-11 10-22 21-22 11 0 21 11 21 22l0 384c-21 0-61-5-74-32z"/>
<glyph unicode="&#108;" d="M77 175l16 0c0 0 2 8 5 19 2 11 22 20 45 20l220 0c22 0 41-9 42-20l3-19 15 0c22 0 40 18 40 40l0 74c0 19-12 34-29 39 1-4 1-8 1-12l0-16c0-26-21-48-48-48l-274 0c-27 0-48 22-48 48l0 16c0 4 0 8 1 12-17-5-29-20-29-39l0-74c0-22 17-40 40-40z m36 93l274 0c18 0 32 14 32 32l0 16c0 5-1 9-3 13l-332 0c-2-4-3-8-3-13l0-16c0-18 14-32 32-32z m-16 47l302 0c2 0 4-2 4-4 0-2-2-4-4-4l-302 0c-2 0-4 2-4 4 0 2 1 4 4 4z m0-25l302 0c2 0 4-2 4-4 0-2-2-4-4-4l-302 0c-2 0-4 2-4 4 0 2 1 4 4 4z m296-101c-1 8-20 15-42 15l-199 0c-22 0-41-7-43-15-1-8-2-14-2-14l288 0z m-260-139c2-1 4-2 6-2 2 0 4 1 6 3 1 1 30 35 8 63-12 15-3 24-1 25 3 3 4 8 1 12-3 3-8 4-11 1-9-7-20-25-2-48 14-17-7-43-7-43-3-3-3-8 0-11z m70 0c2-1 4-2 6-2 2 0 4 1 6 3 1 1 30 35 8 63-12 15-3 24-1 25 3 3 4 8 1 12-3 3-8 4-11 1-9-7-20-25-2-48 14-17-7-43-7-43-3-3-3-8 0-11z m70 0c2-1 4-2 6-2 2 0 4 1 6 3 1 1 30 35 8 63-12 15-3 24-1 25 3 3 4 8 1 12-3 3-8 4-11 1-9-7-20-25-2-48 14-17-7-43-7-43-3-3-3-8 0-11z m70 0c2-1 4-2 6-2 2 0 4 1 6 3 1 1 30 35 8 63-12 15-3 24-1 25 3 3 4 8 1 12-3 3-8 4-11 1-9-7-20-25-2-48 14-17-7-43-7-43-3-3-3-8 0-11z"/>
<glyph unicode="&#112;" d="M480 139c-1 0-2 1-4 1l-13 0c-1 0-2-1-3-1-1 0-3 1-4 1-30-2-59-3-89-4 10 5 19 11 27 17 6 5 11 10 15 16 89-17 98 126 21 133-2 11-5 21-8 31-2 6-7 8-12 8-1 0-2 0-3 0-119-3-237-4-356-3-4 0-7-2-8-4-3-2-5-5-5-9-5-60-5-126 41-171 9-9 19-17 31-23-14 1-28 1-42 2 0 0-1 0-1 0l-26 0c-2 0-4 0-5-1-6-1-11-6-8-14 12-31 46-44 76-52 51-14 104-15 156-15 49 0 98 4 146 14 35 7 74 21 81 60 0 1 0 2 0 3 1 6-2 10-7 11z m-47 138c39-11 37-86-11-86 12 26 14 57 11 86z m-338-107c-39 34-39 95-35 144 114 0 228 1 342 4 15-53 17-118-31-153-28-21-63-29-98-33-18 0-37 0-55-1-43 2-91 11-123 39z m287-86c-40-7-81-9-122-10-43-1-87 2-129 10-20 3-53 9-71 26l3 0c52-2 105-3 157-2 8 0 15 0 22 0 11 0 23 0 34 1 60 2 120 5 180 8 1 0 2 0 3 0 1 0 1 0 2 0-13-23-56-29-79-33z m-39 88c34 29 46 69 39 113-2 15-24 8-22-6 6-36-6-67-34-91-11-10 6-26 17-16z m-198 246c5-8 9-15 10-23 2-7-2-15-11-22-4-3-5-8-4-12 2-5 6-8 11-8 3 0 5 1 7 3 12 9 18 20 20 31 1 12-3 22-8 31-1 4-4 7-6 11-9 17-14 28-6 39 2 4 3 8 1 11-2 4-6 7-10 7-4 0-7-2-10-5-16-24-3-48 5-61z m58 0c4-8 8-15 10-23 2-7-2-15-12-22-3-3-5-8-3-12 2-5 6-8 11-8 2 0 5 1 7 3 12 9 18 20 19 31 2 12-3 22-7 31-2 4-4 7-6 11-10 17-15 28-7 39 3 4 3 8 1 11-1 4-5 7-10 7-3 0-7-2-9-5-17-24-3-48 4-61z m58 0c4-8 8-15 10-23 1-7-3-15-12-22-4-3-5-8-3-12 1-5 6-8 10-8 3 0 5 1 8 3 11 9 18 20 19 31 1 12-3 22-7 31-2 4-4 7-6 11-10 17-15 28-7 39 3 4 3 8 1 11-2 4-6 7-10 7-4 0-7-2-9-5-17-24-3-48 4-61z"/>
<glyph unicode="&#117;" d="M257 20c130 0 236 106 236 237 0 130-106 236-236 236-131 0-237-106-237-236 0-131 106-237 237-237z m0 433c108 0 196-88 196-196 0-46-15-88-41-121l-88 88 45 0 0 68-114 0-119 120c33 26 75 41 121 41z m-155-75l85-86-103 0 0-68 172 0 122-122c-33-26-76-42-121-42-109 0-197 88-197 197 0 45 16 87 42 121z m278-86l21 0 0-68-21 0z m32 0l21 0 0-68-21 0z m-92 72c0 0 80 0 97-51 0 0-4 80-102 79-99-2-92 46-92 46 0 0-27-61 97-74z m75-65c0 0-4 56-84 55-81-1-75 32-75 32 0 0-22-42 79-51 0 0 65 0 80-36z"/>
<glyph unicode="&#118;" d="M85 375c2 0 5 0 9 0 15 0 28 3 37 12 7 6 11 16 11 27 0 11-5 21-13 27-7 6-19 9-35 9-16 0-27-1-35-3l0-113 26 0z m0 54c2 1 5 1 11 1 13 0 20-6 20-17 0-12-9-19-22-19-4 0-7 1-9 1l0 34z m-49-131l129 0c16 0 29 14 29 30l0 128c0 16-13 29-29 29l-129 0c-16 0-29-13-29-29l0-128c0-16 13-30 29-30z m-6 156c0 5 4 8 8 8l125 0c4 0 8-3 8-8l0-124c0-5-4-8-8-8l-125 0c-4 0-8 3-8 8z m96-309c-28 0-51-23-51-51 0-29 23-51 51-51 28 0 51 22 51 51 0 28-23 51-51 51z m0-67c-9 0-16 7-16 16 0 8 7 15 16 15 8 0 15-7 15-15 0-9-7-16-15-16z m373 58l-8 68c-2 13-13 23-27 22l-18-1-57 51c-6 5-13 8-20 8l-116 0c-26 0-51-9-71-25l-65-52-87-22c-11-3-19-13-19-24l0-25c-4 0-7-3-7-7l0-33c0-5 4-9 9-9l49 0c0 3-1 5-1 7 0 35 29 64 65 64 35 0 64-29 64-64 0-2 0-4 0-7l136 0c-1 3-1 5-1 7 0 35 29 64 64 64 36 0 65-29 65-64 0-2-1-4-1-7l46 0c5 0 9 4 9 9l0 31c0 5-4 9-9 9z m-172 84l-162-9 31 25c17 14 38 21 60 21l71 0z m27 1l0 36 10 0c4 0 8-1 10-4l33-29z m35-76c-28 0-51-23-51-51 0-29 23-51 51-51 29 0 52 22 52 51 0 28-23 51-52 51z m0-67c-8 0-15 7-15 16 0 8 7 15 15 15 9 0 16-7 16-15 0-9-7-16-16-16z"/>
<glyph unicode="&#119;" d="M442 254c-23 0-41 19-41 41 0 23 18 42 41 42 23 0 41-19 41-42 0-22-18-41-41-41z m0-103c-23 0-41 18-41 41 0 23 18 41 41 41 23 0 41-18 41-41 0-23-18-41-41-41z m-61-63c0-22-20-44-43-44l-248 0c-23 0-39 22-39 44l0 207c0 23 16 45 39 45l248 0c23 0 43-22 43-45l0-207z m82 287l-154 0c-12 0-16 9-8 19l40 49c8 10 16 18 17 18 0 0 1 0 1 0 12 0 21 9 21 21 0 11-9 20-21 20-11 0-21-9-21-20 0-2 1-3 1-4 0-2-6-11-14-21l-51-61c-8-10-16-18-18-18-2 0-11 8-19 18l-51 61c-8 10-14 19-14 21 1 1 1 2 1 4 0 11-9 20-21 20-11 0-21-9-21-20 0-12 10-21 21-21 1 0 1 0 2 0 1 0 8-7 16-17l40-50c8-10 5-20-8-20l-153 0c-23 1-44-14-44-37l0-290c0-23 21-37 44-37l414 0c22 0 44 14 44 37l0 290c0 23-22 38-44 38"/>
<glyph unicode="&#121;" d="M205 366c4 1 9 1 14 1 5 0 10 0 14-1l0 53 50 50-21 20-29-29 0 31-28 0 0-31-29 29-21-20 50-50 0-53z m93-80l0 28-13 0c1-4 2-9 2-14 0-5-1-10-2-14z m-65-177l0 31 21-21c0 3 0 6 0 9 0 10 1 20 3 28l-24 24 0 54c-4-1-9-2-14-2-5 0-10 1-14 2l0-54-50-49 21-20 29 29 0-31z m-203 147l20-20 49 50 54 0c-1 4-2 9-2 14 0 5 1 10 2 14l-54 0-49 49-20-20 29-29-31 0 0-28 31 0z m24 118l70 0 38-38c5 8 12 15 20 20l-38 38 0 70-29 0 1-42-23 23-20-21 23-22-42 0z m222-38l22 22 0 57c0 21 10 36 25 44l0 5-29 0 0-70-38-38c8-5 15-12 20-20z m-20-93l35-35c2 2 4 4 7 6l0 28-22 22c-5-8-12-15-20-21z m-132-17l-70 0 0-28 42 0-23-23 20-20 23 22-1-41 29 0 0 70 38 37c-8 6-15 13-20 21z m147 74c0-29-24-52-52-52-28 0-52 23-52 52 0 28 24 51 52 51 28 0 52-23 52-51z m81 87l0-104 30 0 0 104c0 7-1 12-3 15-3 8-9 8-12 8-3 0-9 0-13-8-1-3-2-8-2-15z m-36 18l0-202c-8-6-16-12-22-20-10-12-17-27-21-43-1-6-2-12-2-19 0 0 0-1 0-1 1-53 44-95 97-95 6 0 13 0 19 2 44 9 77 48 77 94 0 35-19 66-48 83l0 201c0 24-16 44-39 49-3 1-7 1-11 1-19 0-35-10-44-25-4-8-6-16-6-25z m51 13c17 0 23-14 23-31l0-213c23-6 36-27 38-47 0-2 0-3 0-5 0-33-27-60-60-60-34 0-61 27-61 60 0 2 0 3 0 5 1 3 1 6 2 9 2 10 7 18 14 25 2 2 6 5 9 7 4 2 8 4 12 5l0 214c0 6 1 11 2 15 0 2 1 4 2 6 2 4 5 7 9 8 2 2 6 2 10 2z m30-335c12 14 18 30 16 47-1 11-22 11-21 0 1-14-3-27-13-38-8-9 11-18 18-9z"/>
<glyph unicode="&#122;" d="M421 374l-33 0c-33 36-80 59-132 59-52 0-99-23-132-59l-33 0c-50 0-91-40-91-90l0-56c0-50 41-90 91-90l33 0c33-36 80-59 132-59 52 0 99 23 132 59l33 0c50 0 91 40 91 90l0 56c0 50-41 90-91 90z m-268-179l-29 0-13 75-12-75-29 0-27 121 33 0 9-71 12 71 29 0 12-71 10 71 32 0z m55 128c10 0 17-7 17-15 0-9-7-16-17-16-9 0-17 7-17 16 0 8 8 15 17 15z m-15-40l30 0 0-88-30 0z m299-55c0-39-31-70-71-70l-204 0c27 0 39 31 39 70l0 56c0 39 32 70 71 70l94 0c39 0 71-31 71-70z m-71 55l29 0 0-88-29 0z m32 25c0 8-8 15-17 15-9 0-17-7-17-15 0-9 8-16 17-16 9 0 17 7 17 16z m-147 8l97 0 0-28-66 0 0-27 60 0 0-28-60 0 0-37-31 0z"/>
<glyph unicode="&#65;" d="M440 400c9 0 16-3 23-7l-15 66c-3 18-16 29-33 29l-303 0c-15 0-28-12-32-29l-14-62c5 2 9 3 14 3z m-47 67c13 0 23-10 23-23 0-13-10-23-23-23-13 0-23 10-23 23 0 13 10 23 23 23z m-72 0c13 0 23-10 23-23 0-13-10-23-23-23-13 0-23 10-23 23 0 13 10 23 23 23z m-89-3l40 0 0-16-40 0z m0-32l40 0 0-16-40 0z m-152-400l360 0c13 0 24 11 24 24l0 304c0 3-1 6-2 9 0 1 0 1-1 2-1 2-2 3-3 5-1 1-2 1-2 2-1-2-1-3-2-5 0-4-2-7-3-11-1 0-1-1-2-2-5-9-14-16-26-16l-310 0c-10 0-21 5-28 13-1 1-2 2-2 2-4 4-6 8-8 13-2 3-3 7-3 11-2-1-4-2-5-3-2-1-3-2-4-3-1-1-2-2-2-3-3-4-5-9-5-14l0-304c0-13 11-24 24-24z m181 278c69 0 124-56 124-124 0-68-55-124-124-124-68 0-124 56-124 124 0 68 56 124 124 124z m-148 50l310 0c1 0 3 0 4 1 9 3 13 14 13 23l-352 0c1-11 14-24 25-24z m148-274c55 0 100 45 100 100 0 55-45 100-100 100-55 0-100-45-100-100 0-55 45-100 100-100z m49 153c6 0 12-6 12-12 0-7-6-13-12-13-7 0-13 6-13 13 1 6 6 12 13 12z m-40 24c6 0 12-6 12-12 0-7-6-13-12-13-7 0-13 6-13 13 1 6 6 12 13 12z m-82-66c8 7 24 16 44 15 16 0 23-5 31-11 0 1-1 2-1 2 0 9 8 16 16 16 9 0 16-7 16-16 0-5-3-11-8-13 4-1 7-1 11-1 22-1 31 10 36 19 2-7 3-14 3-22 0-41-33-75-75-75-41 0-74 34-74 75 0 4 0 8 1 11z"/>
<glyph unicode="&#66;" d="M141 45l230 0c25 0 45 20 45 45l0 270-320 0 0-270c0-25 20-45 45-45z m109 263c51 0 94-36 105-85 0 0 1 0 1 0l10 0c5 0 9-4 9-9l0-29c0-5-4-9-9-9l-10 0c0 0-1 0-1 0-11-49-54-85-105-85-60 0-108 49-108 108 0 60 48 109 108 109z m0-193c46 0 84 38 84 84 0 47-168 47-168 0 0-46 37-84 84-84z m17 32c1 0 31 7 38 47 0 2 3 4 5 4 3-1 4-3 4-6-8-45-44-53-45-54-1 0-1 0-1 0-2 0-4 2-5 4 0 2 1 4 4 5z m168 275c0 25-20 45-45 45l-268 0c-25 0-45-20-45-45l0-44 358 0c0 0 0 20 0 44z m-109-9l-204 0 0 18 204 0 0-18z m49-8c-9 0-17 8-17 17 0 10 8 17 17 17 9 0 17-7 17-17 0-9-8-17-17-17z"/>
<glyph unicode="&#67;" d="M467 428c-58 57-151 58-211 4-60 54-153 53-211-4-60-60-60-156 0-215 17-17 177-175 177-175 19-19 49-19 68 0 0 0 175 173 177 175 60 59 60 155 0 215z m-23-192l-177-175c-6-7-16-7-22 0l-177 175c-47 46-47 122 0 169 45 45 118 47 166 4l22-20 22 20c48 43 121 41 166-4 47-47 47-123 0-169z m-296 156c0 0 0 0 0 0-38 0-68-30-68-68 0-4 4-8 8-8 4 0 8 4 8 8l0 0c0 29 23 52 52 52l0 0c4 0 8 4 8 8 0 4-4 8-8 8z"/>
<glyph unicode="&#68;" d="M467 344c-20 6-67 6-136 7 3 15 4 29 4 53 0 57-42 108-79 108-26 0-48-21-48-48 0-32-10-88-64-116-4-2-15-7-17-8l1-1c-8 7-20 13-32 13l-48 0c-26 0-48-22-48-48l0-256c0-26 22-48 48-48l48 0c19 0 35 12 43 28 0 0 0-1 0-1 1 0 3 0 4-1 1 0 1 0 1 0 9-2 27-6 65-15 8-2 51-11 95-11l88 0c27 0 46 10 57 31 0 0 4 7 7 17 2 7 3 18 0 28 18 12 23 30 27 42 6 19 4 33 0 43 9 9 18 23 21 44 2 14 0 27-6 38 9 11 13 23 14 35l0 4c0 2 0 3 0 8 0 20-14 45-45 54z m-355-296c0-9-7-16-16-16l-48 0c-9 0-16 7-16 16l0 256c0 9 7 16 16 16l48 0c9 0 16-7 16-16z m368 231c-1-7-4-23-32-23-24 0-32 0-32 0-4 0-8-4-8-8 0-4 4-8 8-8 0 0 7 0 31 0 24 0 27-20 26-30-2-11-8-34-35-34-27 0-38 0-38 0-4 0-8-4-8-8 0-4 4-8 8-8 0 0 19 0 32 0 27 0 24-21 20-33-5-16-8-31-42-31-12 0-26 0-26 0-5 0-8-4-8-8 0-4 3-8 8-8 0 0 11 0 25 0 17 0 18-17 16-22-2-7-4-12-4-12-5-9-13-14-29-14l-88 0c-44 0-87 10-88 10-67 16-70 17-74 18 0 0-14 2-14 14l0 221c0 7 5 14 13 17 1 0 2 0 3 1 73 30 95 97 96 151 0 8 6 16 16 16 17 0 47-34 47-76 0-38-2-44-15-84 160 0 159-2 173-6 17-5 19-20 19-24 0-6 0-5 0-11z m-408-183c-13 0-24-11-24-24 0-13 11-24 24-24 13 0 24 11 24 24 0 13-11 24-24 24z m0-32c-4 0-8 4-8 8 0 4 4 8 8 8 4 0 8-4 8-8 0-4-4-8-8-8z"/>
<glyph unicode="&#69;" d="M256 228c53 0 96 43 96 96 0 53-43 96-96 96-53 0-96-43-96-96 0-53 43-96 96-96z m0 176c44 0 80-36 80-80 0-44-36-80-80-80-44 0-80 36-80 80 0 44 36 80 80 80z m0 108c-106 0-192-85-192-192 0-112 96-227 166-307 0 0 12-13 25-13 0 0 2 0 2 0 13 0 25 13 25 13 70 80 166 195 166 307 0 107-86 192-192 192z m2-478c0 0-1-1-2-2 0 1-2 2-2 2-59 68-158 182-158 286 0 88 72 160 160 160 88 0 160-72 160-160 0-104-99-218-158-286z"/>
<glyph unicode="&#70;" d="M256 400c-95 0-176-51-176-112 0-4 4-8 8-8 4 0 8 4 8 8 0 51 75 96 160 96 4 0 8 4 8 8 0 4-4 8-8 8z m0 80c-141 0-256-86-256-192 0-66 44-124 112-159 0 0 0-1 0-1 0-29-21-60-31-76 0 0 0 0 0 0-1-2-1-3-1-6 0-8 6-14 14-14 2 0 5 0 5 0 50 8 97 54 108 68 16-3 32-4 49-4 141 0 256 86 256 192 0 106-115 192-256 192z m0-352c-15 0-30 1-45 3-1 1-3 1-4 1-10 0-19-5-25-12-7-8-26-27-49-41 6 15 11 31 11 47 0 1 0 2 0 3 0 12-7 23-17 29-60 30-95 79-95 130 0 88 100 160 224 160 123 0 224-72 224-160 0-88-100-160-224-160z"/>
<glyph unicode="&#71;" d="M498 59c-3 2-62 40-149 59 32 40 53 94 61 131 12 50 8 147-40 209-28 35-68 54-114 54-46 0-86-19-114-54-48-62-52-159-40-209 8-37 29-91 61-131-87-19-146-57-149-59-11-8-17-23-13-36 4-14 17-23 31-23l448 0c14 0 27 9 31 23 4 13-2 28-13 36z m-174 79l-5-7c-38-44-88-44-126 0l-5 7c-45 56-67 131-57 202 8 68 48 140 125 140 77 0 117-72 125-140 10-71-12-146-57-202z m-292-106c2 1 56 37 137 55l40 8c14-9 30-15 47-15 17 0 33 6 47 15l40-8c80-18 134-53 137-55z"/>
<glyph unicode="&#72;" d="M256 352c-71 0-128-57-128-128 0-71 57-128 128-128 71 0 128 57 128 128 0 71-57 128-128 128z m73-190c-35-41-95-45-135-11-41 35-45 95-11 135 35 41 95 45 135 11 41-35 45-95 11-135z m-73 126c-35 0-64-29-64-64l0 0c0-4 4-8 8-8 4 0 8 4 8 8l0 0c0 26 21 48 48 48 4 0 8 4 8 8 0 4-4 8-8 8z m216 79l-69 12-22 55c-8 18-25 30-45 30l-160 0c-20 0-37-12-45-30l-22-55-69-12c-23-4-40-23-40-47l0-240c0-26 22-48 48-48l416 0c26 0 48 22 48 48l0 240c0 24-17 43-40 47z m8-287c0-9-7-16-16-16l-416 0c-9 0-16 7-16 16l0 240c0 8 6 14 13 16l87 14 29 72c3 6 8 10 15 10l160 0c7 0 12-4 15-10l29-72 87-14c7-2 13-8 13-16z"/>
<glyph unicode="&#73;" d="M432 512l-352 0c-35 0-64-29-64-64l0-384c0-35 29-64 64-64l352 0c35 0 64 29 64 64l0 384c0 35-29 64-64 64z m32-448c0-18-14-32-32-32l-352 0c-18 0-32 14-32 32l0 384c0 18 14 32 32 32l352 0c18 0 32-14 32-32z m-48 384l-320 0c-9 0-16-7-16-16l0-288c0-9 7-16 16-16l320 0c9 0 16 7 16 16l0 288c0 9-7 16-16 16z m0-16l0-222-52 57c-3 3-7 5-12 5-5 0-9-2-12-5l-42-48-126 144c-3 3-7 5-12 5-5 0-9-2-12-5l-52-60 0 129z m-320-154l64 74 129-146 9-11 45-51-247 0z m268-134l-55 63 43 49 64-70 0-42z m-44 160c26 0 48 21 48 48 0 27-22 48-48 48-27 0-48-21-48-48 0-27 21-48 48-48z m0 80c18 0 32-14 32-32 0-18-14-32-32-32-18 0-32 14-32 32 0 18 14 32 32 32z"/>
<glyph unicode="&#74;" d="M510 311c-4 13-16 22-29 24l-134 20-58 120c-6 13-19 21-33 21-14 0-27-8-33-21l-58-120-134-20c-13-2-25-11-29-24-4-13-1-27 9-36l97-98-22-135c-3-14 3-27 15-35 6-5 13-7 21-7 6 0 12 2 18 4l116 63 116-63c6-2 12-4 18-4 8 0 15 2 21 7 12 8 18 21 15 35l-22 135 98 98c9 9 12 23 8 36z m-133-109c-8-8-11-19-10-31l23-135-116 63c-6 3-12 4-18 4-6 0-12-1-18-4l-116-63 23 135c1 12-2 23-10 31l-98 98 133 20c12 1 23 9 28 20l58 120 58-120c5-11 16-19 28-21l133-19z"/>
<glyph unicode="&#75;" d="M121 36c21 5 36 24 44 44l-11 0c-5 0-10 0-14 0-5-10-13-18-24-20-3 3-8 5-13 5-11 0-19-9-19-20 0-11 8-20 19-20 8 0 15 5 18 11z m306-11c11 0 20 9 20 20 0 11-9 20-20 20-4 0-8-2-11-4-10 3-17 11-21 21-8-2-14-2-19-2l-9 0c7-19 20-37 42-43 3-7 10-12 18-12z m-32 376l-40 40c-7-2-30-17-37-24l54-53c7 6 21 29 23 37z m-76-16c1 0 2 1 3 2l5 5c1 1 1 1 1 1 1 2 1 4-1 5-1 1-3 1-4 1-1 0-1-1-1-1l-6-6c-2-1-2-4 0-5 1-1 2-2 3-2z m-17-17c1 0 2 1 3 2l5 5c2 2 2 4 0 6-1 2-4 2-5 0l-6-6c-2-1-2-4 0-5 1-1 2-2 3-2z m-17-16c1 0 2 0 3 1l5 5c2 2 2 4 0 6-1 2-4 2-5 0l-6-6c-1-1-1-4 0-5 1-1 2-1 3-1z m54 30c1 2 1 3 0 5-2 1-3 1-5 0 0 0-1 0-1 0l-6-6c-1-2-1-4 0-6 1 0 2-1 3-1 1 0 2 1 3 1l6 6c0 0 0 1 0 1z m-17-12c-2 1-4 1-6 0l-6-6c-1-2-1-4 0-6 1 0 2-1 3-1 1 0 2 1 3 1l6 6c1 2 1 4 0 6z m-17-17c-2 1-4 1-6 0l-6-6c-1-2-1-4 0-6 1 0 2-1 3-1 1 0 2 1 3 1l6 6c1 2 1 4 0 6z m36 10c1 0 3 0 3 1l6 6c0 0 1 0 1 1 0 1 0 3-1 4-1 2-3 2-5 1 0 0 0 0-1-1l-5-5c-2-2-2-4 0-6 0-1 1-1 2-1z m-17-17c2 0 3 0 3 1l6 6c2 1 2 4 0 5-2 2-4 2-6 0l-5-5c-2-2-2-4 0-6 0-1 1-1 2-1z m-16-17c1 0 2 0 2 1l6 6c2 1 2 4 0 5-2 2-4 2-6 0l-5-5c-2-2-2-4 0-6 0-1 1-1 3-1z m180-49l-24 0 0 184c0 4-4 8-8 8l-35 0c-2 0-4-1-5-2l-29-27c-6 2-14 0-19-2l28-28c2 6 4 13 2 19l26 24 24 0 0-176-416 0c-9 0-16-7-16-16l0-16c0-9 7-16 16-16l10 0c1-6 3-13 5-22l11-53c16-58 47-68 85-69 4 0 7 0 11 0l14 0 197 0c0 0 0 0 0 0 0 0 0 0 0 0l11 0c5 0 10 0 15 1 25 4 57 18 72 64l18 79 7 0c0 0 1 0 1 0 8 1 15 8 15 16l0 16c0 9-7 16-16 16z m-128-167c0 0 0 0 0 0 0 0 0 0 0 0z"/>
<glyph unicode="&#76;" d="M356 275l-74 0c-8 0-14-6-14-13l0-26c0-8 6-14 14-14l78 0c7 0 13 6 13 14l0 26c0 7-6 13-13 13z m-310-148l0-70 26 0 0 26 359 0 0-26 26 0 0 70z m386 236l0-43c0 0-1 1-1 1l0-1c-15 16-37 25-61 25l-236 0c-23 0-45-9-61-25l0 1c0 0 0-1 0-1l0 43-26 0 0-157c6 9 15 17 31 17l47 0c-3 3-4 8-4 13l0 26c0 12 10 22 22 22l79 0c12 0 22-10 22-22l0-26c0-5-2-10-4-13l25 0c-3 3-4 8-4 13l0 26c0 12 10 22 22 22l79 0c12 0 20-10 20-22l0-26c0-5-1-10-4-13l49 0c15 0 25-8 31-17l0 157z m-290-140l78 0c7 0 13 6 13 13l0 27c0 7-6 13-13 13l-78 0c-8 0-14-6-14-13l0-27c1-7 7-13 14-13z m316-53c-2 0-3 0-5 0l-3 0c0 0-399 0-399 0l0 0c-1 0-3 0-4 0-5-2-9-7-9-13l0-9c0-6 4-10 9-12 1 0 3-1 4-1l403 0c0 0 1 0 2 1 1 0 1 0 2 0 5 2 9 7 9 12l0 9c-1 6-4 11-9 13z m-1 14c-2 12-9 30-30 30l-350 0c-21 0-27-18-29-30-1-2-1-3-1-4l411 0c-1 1-1 2-1 4z"/>
<glyph unicode="&#77;" d="M471 239l-5 0 0 110c0 21-16 39-37 39-18 0-39-13-49-29l-13-24-4 3c-5 2-11 1-14-2l-21-23c-3-3-2-8 2-10l48-27c4-2 9-1 11 4l12 26c2 4 0 10-4 12l-8 5 14 23c5 8 17 16 26 16 6 0 12-6 12-13l0-110-401 0c-12 0-21-10-21-22 0-12 9-21 21-21l431 0c12 0 21 9 21 21 0 12-9 22-21 22z m-17-57l-386 0c-5 0-10-2-12-6-1-4-1-8 3-12 11-15 33-34 72-49l-7-33c-2-7 3-14 10-16 1 0 2 0 2 0 6 0 12 4 13 10l7 31c26-7 59-12 100-12 59 0 104 10 137 24l9-43c1-6 7-10 13-10 0 0 1 0 2 0 7 2 12 9 10 16l-10 44c0 2 0 3-1 4 22 12 37 24 46 35 3 3 5 8 3 11-2 4-6 6-11 6z"/>
<glyph unicode="&#79;" d="M203 384c23 0 43 20 43 43 0 24-20 43-43 43-24 0-43-19-43-43 0-23 19-43 43-43z m14-56c14-25 28-50 41-76-19-10-43-28-54-38-12-9-34-58-46-82-12-25 27-44 40-18 10 20 26 62 36 70 10 8 42 31 67 39 1 1 2 1 3 2 31-39 90-57 140-27 27 15 3 54-24 38-37-22-75 6-93 41-17 34-29 59-44 83 28 9 53 1 73-27 16-23 54-1 38 22-39 54-96 67-153 33-3-1-13-7-16-9-35-21-68-17-93 18-16 22-54 1-38-22 32-44 76-61 123-47z m260-247l-389 0-31 175 78 0c10 0 19 9 19 20 0 10-9 19-19 19l-100 0c-11 0-20-9-20-19l0-3c0-1 0-2 1-4l37-211c1-9 9-16 19-16l405 0c11 0 20 8 20 19 0 11-9 20-20 20z"/>
<glyph unicode="&#80;" d="M78 23l328 0 0-15-328 0z m159 11l112 0-29 44-27-39-26 39-25-38-26 38-26-39-26 39-30-44z m180 228c-6-2-13-9-18-14-1 12-1 21-1 23l11 0 0 15-315 0 0-15 12 0c0-2-1-11-1-24-5 5-11 10-16 12-10 3-41 0-41 0l0-13c0 0 31 1 38-3 6-4 13-36 19-36 0 0 0 0 1 0 1-35 6-73 19-85l-16 0 0-20 283 0 0 20-14 0c14 12 19 52 20 88 1 0 2 0 3 0 5 0 13 32 19 36 7 4 38 3 38 3l0 13c0 0-32 3-41 0z m-273-114c-3 6-6 13-8 21-1 4-2 8-3 13-1 4-1 8-1 12-1 4-1 9-1 14 1 4 1 8 1 12 1 4 0 8 1 12 1 4 2 7 2 10 3 13 7 21 7 21 0 0 0-2 1-6 0-4 0-9 1-15 0-7 1-14 2-22 0-4 1-8 1-12 0-4 1-7 2-12 1-9 2-16 3-24 1-7 2-15 3-21 1-12 2-22 2-22 0 0-7 7-13 19z m39 236c2-3 3-4 5-6l4-5c0-2 2-3 2-5 2-4 3-7 4-12 1-7 1-16 0-23 0-15-2-25-2-25 0 0 8 7 14 22 2 4 3 8 4 13 1 4 2 9 2 15 0 5-1 11-3 17-1 3-3 6-4 8-1 2-2 3-3 4l-1 2-1 1 0 1c0-1 0-1 0-1l0 0 0 0c-1 2-4 5-4 6-1 1-2 2-2 4-2 4-3 8-3 12-2 8-1 16-1 23 1 15 2 25 2 25 0 0-8-7-14-22-3-7-6-17-6-27 0-6 1-12 3-17 0-3 2-7 4-10z m21 7c0 0-1 0 0 0z m25 45c1-4 3-5 4-7l4-5c1-2 2-3 3-5 1-3 3-7 3-11 2-8 2-16 1-24-1-14-2-25-2-25 0 0 8 8 14 23 1 3 3 8 4 12 1 5 2 10 2 15 0 6-1 12-3 17-1 3-3 6-4 9-1 1-2 3-3 4l-2 2 0 1-1 0c1 0 1 0 1 0l0 0 0 0c-2 2-4 4-5 5 0 2-1 3-2 5-1 3-2 7-3 11-1 8-1 17 0 24 1 14 2 25 2 25 0 0-8-8-14-22-3-8-6-17-6-28 0-5 0-11 2-17 1-3 3-6 5-9z m20 6c0 0 0 0 0 0z m36-53c2-3 3-4 5-7l4-5c1-1 2-3 3-5 1-3 2-7 3-11 1-8 1-16 1-23-1-15-3-25-3-25 0 0 8 7 14 22 2 4 3 8 4 13 1 4 2 9 2 15 0 5-1 11-3 17-1 3-2 5-4 8-1 2-2 3-3 4l-1 2-1 1 0 0c0 0 0 0 0 0l0 0 0 0c-1 2-4 5-4 6-1 1-2 2-2 4-2 3-3 7-3 11-1 8-1 17-1 24 1 15 2 25 2 25 0 0-7-7-14-22-3-8-5-17-5-28 0-5 0-11 2-17 1-2 2-6 4-9z m21 6c0 0 0 1 0 0z"/>
<glyph unicode="&#82;" d="M506 47l-222 416c-5 10-16 17-28 17l0 0c-12 0-23-6-28-17l-223-416c-6-10-5-22 1-31 5-10 16-16 27-16l445 0c11 0 22 6 27 16 6 9 7 21 1 31z m-250 17c-18 0-32 14-32 32 0 18 14 32 32 32 18 0 32-14 32-32 0-18-14-32-32-32z m32 127c0-17-14-32-32-32-18 0-32 15-32 32l0 128c0 18 14 32 32 32 18 0 32-14 32-32z"/>
<glyph unicode="&#83;" d="M286 135c0-17-11-30-30-30l0 0c-18 0-30 13-30 30 0 19 12 31 30 31 18 0 30-12 30-31z m-49 48l39 0 7 153-53 0z m254-129c-5-9-15-15-26-15l-418 0c-11 0-21 6-27 16-5 9-5 21 1 31l210 372c5 9 15 15 26 15l1 0c11-1 21-7 26-17l208-372c5-9 5-21-1-30z m-26 16l-208 372-210-372z"/>
<glyph unicode="&#84;" d="M412 204l-181-123c-7-5-16-8-25-8-10 0-22 4-30 11l-174 153c-3-5-2-11-1-21 0-7 2-12 6-15l180-158c7-6 28-6 36 0l182 124c11-3 29-7 45-5 21 3 47 15 55 40 1 3 4 12 4 23-16-14-36-21-53-23-15-3-32-1-44 2z m-403 64l175-153c7-7 32-17 50 1l173 118c11-3 29-7 45-5 20 3 47 15 54 40 3 8 17 45-27 83-15 13-146 124-221 124-17 0-54-6-58-59l-190-107c-10-7-9-13-8-27 1-7 3-12 7-15z m65 25c0 5 3 9 7 11l146 82c5 3 8 8 8 14 0 32 14 32 23 32 50 0 151-77 186-107 12-11 18-22 16-29-2-8-13-14-25-16-15-2-34 6-34 6-2 0-4 1-6 1-3 0-6-1-9-3l-161-109c-8-6-20-5-28 2l-118 104c-4 3-6 7-5 12z m91 4c0 6-8 12-17 12-9 0-17-6-17-12 0-7 8-13 17-13 9 0 17 6 17 13z m92-56c0 7-7 12-16 12-10 0-17-5-17-12 0-7 7-12 17-12 9 0 16 5 16 12z m37 130c0 6-7 12-17 12-9 0-16-6-16-12 0-7 7-13 16-13 10 0 17 6 17 13z m72-37c0 6-6 11-15 11-8 0-15-5-15-11 0-6 7-11 15-11 9 0 15 5 15 11z m-92-19c0 6-7 11-15 11-8 0-15-5-15-11 0-6 7-11 15-11 8 0 15 5 15 11z"/>
<glyph unicode="&#85;" d="M451 191c-5-6-13-9-21-9-8 0-15 3-21 9-16 19-40 31-67 31-27 0-51-11-68-30-5-6-13-9-21-9-7 0-15 3-20 9-17 19-41 30-68 30-27 0-51-11-67-30-5-6-13-9-21-9-8 0-15 3-21 9-13 15-30 25-50 29l0-55c4-2 8-5 11-9 15-17 37-27 60-27 23 0 45 10 60 27 7 8 17 13 28 13 11 0 21-5 28-13 16-17 38-27 60-27 23 0 45 10 60 27 8 8 18 13 29 13 14 0 24-8 28-13 15-17 37-27 60-27 24 0 46 10 61 27 3 3 8 8 17 11l0 53c-23-3-43-13-57-30z m9 117c0-36-29-65-64-65-36 0-65 29-65 65 0 35 29 64 65 64 35 0 64-29 64-64z m-214-104c4-5 11-5 15 0 17 18 39 30 63 34 2 10 1 21-2 31-2 5-23 74-23 74 0 0-2 15 7 27 8 13 26 22 52 26 14 2 24 15 22 29-2 15-15 25-30 23-41-7-70-23-88-48-21-32-15-65-14-69l6-22c-4-1-7-2-10-3l-106-37c-24-9-39-30-41-54 19 16 43 25 68 25 31 0 60-13 81-36z"/>
<glyph unicode="&#87;" d="M299 92c-24-29-60-48-102-48-72 0-129 59-129 131 0 42 23 80 53 104l0 44c-52-28-92-83-92-148 0-92 75-169 169-169 60 0 112 33 142 79-2 5-5 10-7 14-11-2-23-5-34-7z m-36 360c0 33-26 60-60 60-33 0-60-27-60-60 0-33 27-60 60-60 34 0 60 27 60 60z m202-396l-63 146c-7 17-26 26-44 22l-127-29 0 136c0 22-17 39-39 39 0 0 0 0 0 0-21 0-38-17-38-39l0-184c0-12 6-23 15-30 9-8 21-10 32-8l143 33 50-116c6-15 21-23 36-23 5 0 10 1 15 3 19 8 28 31 20 50z"/>
<glyph unicode="&#88;" d="M485 195c0 0 0 0 0 0 0 1 0 2 0 2 0 44-23 71-57 86l0 23c0 46-34 73-91 73-42 0-72-15-84-42-14 23-42 36-81 36-57 0-91-28-91-73l0-22c-25-16-42-41-42-83l0-85c0-9 8-16 16-16l22 0c8 0 16 7 16 16l0 38 339 0 0-38c0-9 7-16 16-16l21 0c9 0 16 7 16 16z m-430-31l0 23 414 0 0-23-414 0z m208 142c0 52 52 57 74 57 23 0 75-5 75-57l0-17c-44 15-100 16-150 16 0 0 0 0 0 0 1 1 1 1 1 1z m-166-6c0 51 53 57 75 57 22 0 71-6 74-52-53 0-108-1-149-19z m157-11c58 0 119 0 162-18 1 0 1 0 2-1 29-12 48-32 51-67l-413 0c5 79 85 86 198 86z m-199-179l0 38 22 0 0-38z m393 0l0 38 21 0 0-38z"/>
<glyph unicode="&#90;" d="M73 141l362 0c0 0 0 0 0 0 7 0 12 5 12 12 0 1 0 1 0 2-1 102-81 185-181 191l0 12c14 5 24 19 24 34 0 20-16 37-36 37-20 0-36-17-36-37 0-16 10-29 24-34l0-12c-101-6-181-90-181-193 0-7 5-12 12-12z m169 251c0 7 5 13 12 13 7 0 12-6 12-13 0-6-5-12-12-12-7 0-12 6-12 12z m12-70c89 0 163-69 169-157l-338 0c6 88 80 157 169 157z m22-22c-6 0-12-6-12-12 0-7 6-12 12-12 42 0 85-43 85-85 0-6 5-12 12-12 6 0 12 6 12 12 0 56-53 109-109 109z m-203-198l362 0c7 0 12 5 12 12 0 7-5 12-12 12l-362 0c-7 0-12-5-12-12 0-7 5-12 12-12z"/>
<glyph unicode="&#48;" d="M256 466c-116 0-210-94-210-210 0-116 94-210 210-210 116 0 210 94 210 210 0 116-94 210-210 210z m0-399c-104 0-189 85-189 189 0 104 85 189 189 189 104 0 189-85 189-189 0-104-85-189-189-189z m60 75l0-28c0-1-1-2-2-2l-102 0c-1 0-2 1-2 2l0 28c0 1 1 2 2 2l30 0 0 148-30 0c-1 0-2 1-2 2l0 28c0 1 1 2 2 2l70 0c1 0 2-1 2-2l0-178 30 0c1 0 2-1 2-2z m-92 234c0 18 14 32 32 32 17 0 32-14 32-32 0-17-15-32-32-32-18 0-32 15-32 32z"/>
<glyph unicode="&#49;" d="M512 256c0 141-115 256-256 256-141 0-256-115-256-256 0-141 115-256 256-256 141 0 256 115 256 256z m-250 140c16 0 29-13 29-29 0-17-13-30-29-30-16 0-29 13-29 30 0 16 13 29 29 29z m-64-268l35 0 0 163-35 0 0 23 93 0 0-186 35 0 0-23-128 0z"/>
<glyph unicode="&#50;" d="M341 395c-4 0-8 3-8 8l0 57c0 5-4 9-9 9l-136 0c-5 0-9-4-9-9l0-57c0-5-4-8-8-8-5 0-8 3-8 8l0 57c0 14 11 25 25 25l136 0c14 0 25-11 25-25l0-57c0-5-3-8-8-8z m-31 5c-3 0-5 2-5 5l0 35c0 2-1 3-1 3l-95 0c0 1 0-1 0-3l0-35c0-3-3-5-6-5-3 0-5 2-5 5l0 35c0 3 0 14 11 14l94 0c6 0 12-4 12-14l0-35c0-3-2-5-5-5z m-226-371c-74 0-84 42-84 79l0 224c0 38 10 81 84 81 6 0 11-4 11-10 0-6-5-11-11-11-52 0-63-22-63-60l0-224c0-36 11-57 63-57 6 0 11-5 11-11 0-6-5-11-11-11z m301 0l-257 0c-6 0-11 5-11 11 0 6 5 11 11 11l257 0c6 0 11-5 11-11 0-6-5-11-11-11z m44 0c-6 0-10 5-10 11 0 6 4 11 10 11 52 0 62 20 62 57l0 224c0 38-4 60-62 60-6 0-10 5-10 11 0 6 4 10 10 10 77 0 83-40 83-81l0-224c0-39-10-79-83-79z m-43 363l-258 0c-6 0-11 5-11 11 0 6 5 10 11 10l258 0c6 0 11-4 11-10 0-6-5-11-11-11z m-299 21l39 0 0-383-39 0z m301 0l39 0 0-384-39 0z m-200-317c-1 0-2 0-3 1-22 16-30 25-33 37-3 11 3 25 16 29 6 2 12 1 18-2 5-3 9-8 11-14 1-3-1-6-3-7-3 0-6 1-7 4-1 3-3 6-6 8-3 1-7 2-10 1-7-2-10-11-9-16 2-8 8-16 29-32 3-1 3-5 1-7-1-2-2-2-4-2z m5-2c-4 0-7 2-10 4-2 2-3 5-1 8 2 2 5 2 8 0 2-1 2-1 3-1 3 0 6-2 6-5 0-3-2-6-5-6-1 0-1 0-1 0z m6 2c-2 0-3 1-4 2-2 2-2 6 0 8 21 17 26 24 27 33 1 5-3 13-10 15-3 1-6 0-9-2-3-2-5-4-6-8 0-3-3-4-6-4-3 1-5 4-4 7 1 6 5 11 10 14 5 4 12 5 18 3 13-3 20-17 18-27-3-13-10-23-31-40-1-1-2-1-3-1z m-6-2c-2 0-5 2-5 5 0 3 2 6 5 6 1 0 2 0 4 2 2 2 5 1 7-1 2-2 2-5 0-7-3-3-6-5-10-5 0 0-1 0-1 0z m138 185c-3 0-5 0-7 1l-51 23c-8 3-12 12-8 20l9 21c3 7 13 11 20 8l52-23c8-3 11-13 8-20l-9-21c-3-5-8-9-14-9z m-43 63c-2 0-4-1-4-3l-9-20c-1-2 0-5 2-6l52-23c2-1 5 0 6 2l9 21c1 2 0 5-3 6l-51 23c-1 0-1 0-2 0z m171-215c-5 0-10 3-13 8l-11 19c-4 7-3 15 3 19l38 23c6 3 15 0 19-7l11-19c4-7 3-15-3-19l-38-23c-2-1-4-1-6-1z m23 61l-39-23c-1-1-1-4 0-6l12-20c1-2 4-3 5-3l38 23c1 1 2 4 0 6l-11 20c-2 2-4 3-5 3z m-419 9c-1 0-2 0-3 1l-54 35c-2 1-3 2-3 4 1 2 2 4 3 5l60 29c2 1 4 1 6 0 1-1 2-3 2-5l-6-64c0-2-1-4-3-5 0 0-1 0-2 0z m-43 39l38-25 4 46z"/>
<glyph unicode="&#51;" d="M405 405l-96 0 0 86 32 0c6 0 11 4 11 10 0 6-5 11-11 11l-149 0c-6 0-11-5-11-11 0-6 5-10 11-10l32 0 0-86-96 0c-6 0-11-4-11-10 0-6 5-11 11-11l53 0 0-203c0-49 33-89 75-95l0-75c0-6 5-11 11-11 6 0 10 5 10 11l0 75c42 6 75 46 75 95l0 203 53 0c6 0 11 5 11 11 0 6-5 10-11 10z m-160 86l43 0 0-86-43 0z m86-310c0-41-29-74-64-74-36 0-64 33-64 74l0 54 32 0c6 0 10 4 10 10 0 6-4 11-10 11l-32 0 0 21 32 0c6 0 10 5 10 11 0 6-4 11-10 11l-32 0 0 21 32 0c6 0 10 5 10 11 0 6-4 10-10 10l-32 0 0 43 128 0z"/>
<glyph unicode="&#52;" d="M295 217c-11-4-24-8-24-32l0-94c0-11 4-19 12-25 3-2 7-4 15-6 32-9 48-16 50-18 2-1 4-3 4-7 0 0-14-3-96-3-82 0-96 3-96 3 0 4 2 6 4 7 2 2 18 9 50 18 8 2 11 4 14 6 8 6 11 14 11 25l0 94c0 24-11 28-22 32-11 4-18 6-26 11-12 7-23 16-32 26-20 23-31 52-31 87 0 50 4 100 8 114 4 14 14 25 31 25l178 0c17 0 27-11 31-25 4-14 8-65 8-115 0-35-11-63-31-86-9-10-20-19-32-26-8-5-15-7-26-11z m-39 25c26 0 50 11 67 28l6 6c16 18 22 35 23 65 1 30-2 83-8 107l-177 0c-7-35-8-80-7-108 1-28 7-46 23-64 2-3 4-6 7-8 17-16 41-26 66-26z m80 99c0-10-1-20-4-29-3-9-8-18-15-25l-5-5c-14-14-34-23-56-23-21 0-41 8-55 22l-6 6c-7 7-12 16-15 25-3 9-3 15-4 29-1 9 0 34 1 53 1 10 2 19 3 22l153 0c1-6 2-14 2-22 1-21 1-45 1-53z m-16-8l0 26c0 4-4 8-8 8-4 0-8-4-8-8l0-26c0-3 1-6 3-7 1-1 3-1 5-1 4 0 8 3 8 8z m-1 47c1 2 1 4 1 6 0 2-2 4-4 5-2 1-4 1-6 1-2 0-4-1-5-3-1-2-1-4-1-6 0-2 2-4 4-5 2-1 4-1 6-1 2 0 4 1 5 3z"/>
<glyph unicode="&#53;" d="M352 368c-1-43-33-79-33-79 0 80-63 143-63 143 0 0-1-47-33-95-32 111-127 175-127 175 48-175-16-239-16-366 0-75 63-146 160-146 143 0 171 53 186 112 20 82-10 176-74 256z m43-248c-10-41-22-88-155-88-80 0-128 58-128 114 0 43 8 78 16 115 11 47 21 95 17 159 49-68 67-159 67-159 0 0 46 65 58 95 9-19 18-84 18-148 0 0 42 35 74 88 34-61 46-123 33-176z m-36 123l-14-15c-17-20-32-39-75-60-6 18-12 38-12 69l0 27-24-38c-8-13-15-23-25-38-15 35-26 60-34 84l-8 21-8-24c-11-31-21-60-21-135 0-4 4-8 8-8 4 0 8 4 8 8 0 58 6 86 13 111 9-21 19-45 33-76l6-12 8 11c13 18 21 30 30 43 2-23 8-40 14-57l3-8 8 3c43 21 63 40 79 58 3-30-1-63-10-86-2-4 0-9 4-10 1-1 2-1 3-1 3 0 6 2 7 5 13 31 17 75 10 112z"/>
<glyph unicode="&#54;" d="M405 320l0 64c0 43-42 107-149 107-107 0-149-64-149-107l0-64-43 0 0-235c0-35 29-64 64-64l256 0c35 0 64 29 64 64l0 235z m-256 85c0 0 22 43 107 43 85 0 107-43 107-43l0-85-214 0z m256-320c0-11-9-21-21-21l-256 0c-12 0-21 10-21 21l0 192 298 0z m-170 70l0-48 42 0 0 48c13 8 22 21 22 37 0 24-19 43-43 43-24 0-43-19-43-43 0-16 9-29 22-37z"/>
<glyph unicode="&#55;" d="M0 224l416 0 0-96-416 0z m432 0l32 0 0-96-32 0z m48 0l32 0 0-96-32 0z m32 32l-32 0c0 1-1 71-55 98-104 52-105 154-105 158l32 0-16 0 16 0c0-3 2-87 87-130 72-36 73-122 73-126z m-80 0c0 1-1 36-37 49-232 83-235 202-235 207l32 0c0-1 5-103 213-177 58-20 59-77 59-79z"/>
<glyph unicode="&#56;" d="M436 313l-238-238c-29-29-76-29-106 0-29 29-29 77 0 106l31 31 207 207 25 25c20 20 52 20 72 0 20-20 20-52 0-72l-66-65-170-171c-10-9-26-9-36 0-10 10-10 26 0 36l170 170c4 4 4 10 0 13-3 4-9 4-13 0l-170-170c-17-17-17-44 0-61 17-17 45-17 62 0l170 170 66 66c26 26 26 70 0 97-27 27-71 27-98 0l-25-25-207-207-30-31c-37-36-37-95 0-132 36-36 95-36 131 0l238 238c4 4 4 9 0 13-3 3-9 3-13 0z"/>
<glyph unicode="&#57;" d="M416 222c-5 0-9-4-9-9l0-118c0-27-22-49-49-49l-290 0c-27 0-49 22-49 49l0 236c0 27 22 49 49 49l173 0c5 0 9 4 9 9 0 5-4 9-9 9l-173 0c-38 0-68-30-68-67l0-236c0-37 30-67 68-67l290 0c37 0 68 30 68 67l0 118c0 5-5 9-10 9z m-18 260c-62 0-112-50-112-112 0-25 9-48 23-67l-83-138c-3-4-2-9 2-12 2-1 4-2 6-2 2 0 5 1 6 3l114 114c13-6 28-9 44-9 61 0 111 50 111 111 0 62-50 112-111 112z m-116-260l40 67c5-5 10-9 15-12z m116 55c-52 0-93 42-93 93 0 52 41 93 93 93 51 0 92-41 92-93 0-51-41-93-92-93z m52 140c-4 4-10 4-13 1-4-4-5-10-1-14 8-9 13-21 13-34 0-28-23-51-51-51-6 0-10-4-10-9 0-5 4-9 10-9 38 0 69 31 69 69 0 18-6 34-17 47z"/>
<glyph unicode="&#43;" d="M436 343c-7 0-12-5-12-12l0-47-14 0 0 11c0 26-21 48-48 48-14 0-27-6-36-16-9 10-22 16-36 16-15 0-28-6-37-16-8 10-21 16-36 16-14 0-27-6-36-16-9 10-22 16-36 16-27 0-49-22-49-48l0-11-24 0c-6 0-12-5-12-12 0-6 6-12 12-12l24 0 0-179c0-26 22-48 49-48 14 0 27 6 36 16 9-10 22-16 36-16 15 0 28 6 36 16 9-10 22-16 37-16 14 0 27 6 36 16 9-10 22-16 36-16 27 0 48 22 48 48l0 179 26 0c6 0 12 6 12 12l0 59c0 7-6 12-12 12z m-50-83l0-179c0-13-11-24-24-24-13 0-24 11-24 24l0 214c0 13 11 24 24 24 13 0 24-11 24-24z m-72-179c0-13-11-24-24-24-14 0-25 11-25 24l0 214c0 13 11 24 25 24 13 0 24-11 24-24z m-73 0c0-13-10-24-24-24-13 0-24 11-24 24l0 214c0 13 11 24 24 24 14 0 24-11 24-24z m-72 0c0-13-11-24-24-24-14 0-25 11-25 24l0 214c0 13 11 24 25 24 13 0 24-11 24-24z m5 405c-11-13-16-27-10-43 5-16 21-31 8-48-9-12 8-29 17-17 11 14 16 28 10 45-5 15-21 30-8 46 9 12-7 29-17 17z m87-108c11 14 16 28 10 45-5 15-21 30-8 46 9 12-7 29-17 17-11-13-16-27-10-43 5-16 21-31 8-48-9-12 8-29 17-17z m57 108c-11-13-16-27-10-43 5-16 21-31 8-48-9-12 8-29 17-17 11 14 16 28 10 45-5 15-21 30-8 46 9 12-7 29-17 17z"/>
<glyph unicode="&#44;" d="M332 284c20-10 36-31 36-55 0-17-3-21-15-21l-81 0-12-176-8 0-12 176-81 0c-12 0-15 5-15 21 0 24 16 45 36 55 1 0 3 1 4 2 7 4 12 11 14 19l18 118 0 5c0 7-4 10-10 13-1 0-1 1-2 1-7 3-12 9-12 17 0 20 6 21 18 21l92 0c12 0 18-1 18-21 0-8-5-14-12-17-1 0-1-1-2-1-6-3-10-6-10-13l0-5 18-118c2-8 7-15 14-19 1-1 3-2 4-2z"/>
<glyph unicode="&#45;" d="M464 262c-5 8-15 13-25 13l-52 0c0 8 1 14 1 19 0 4-4 8-8 8l-323 0c-4 0-8-4-8-8 1-35 10-171 120-204l-103 0c-7 0-14-5-17-11l-3-9c-2-6 1-11 8-11l329 0c7 0 10 5 8 11l-4 9c-2 6-9 11-16 11l-98 0c37 11 63 36 80 65 71 2 102 51 114 81 3 9 2 18-3 26z m-20-17c-10-27-33-59-79-65 11 24 16 50 19 71l55 0c3 0 5-1 5-2 1-1 1-3 0-4z m-229 67c2-2 4-3 7-3 2 0 4 1 5 2 4 3 4 9 1 12 0 1-22 27-8 45 19 25 8 44-1 52-4 2-9 2-12-2-3-3-3-9 1-12 2-1 12-11-1-27-24-29 7-65 8-67z m46 152c3 3 4 8 1 12-3 3-8 4-12 1-9-7-20-27-1-51 14-18-8-45-8-45-3-4-3-9 0-12 2-2 4-2 6-2 2 0 5 1 6 3 2 1 32 37 9 66-13 17-3 26-1 28z"/>
<glyph unicode="&#46;" d="M267 192c-3 0-6 1-8 3l-171 171c-3 3-4 7-2 11 2 4 6 7 10 7l341 0c5 0 9-3 10-7 2-4 1-8-2-11l-171-171c-2-2-5-3-7-3z m-145 171l145-145 145 145z m145-363c-6 0-11 5-11 11l0 192c0 6 5 10 11 10 6 0 10-4 10-10l0-192c0-6-4-11-10-11z m85 0l-171 0c-6 0-10 5-10 11 0 6 4 10 10 10l171 0c6 0 11-4 11-10 0-6-5-11-11-11z m-200 366l-55 56c-11 10-24 15-38 15l-59 0 0 22 59 0c20 0 39-8 53-22l56-56z m285-46c-13 0-27 4-39 11l12 18c8-5 17-8 27-8 30 0 54 24 54 54 0 29-24 53-54 53-29 0-53-24-53-53 0-6 1-12 3-18l-20-7c-3 8-4 16-4 25 0 41 33 74 74 74 41 0 75-33 75-74 0-41-34-75-75-75z"/>
<glyph unicode="&#47;" d="M405 320l-32 0 0 75c0 64-52 117-117 117-65 0-117-53-117-117l0-75-32 0c-59 0-107-48-107-107l0-138c0-41 33-75 75-75l362 0c42 0 75 34 75 75l0 138c0 59-48 107-107 107z m-245 75c0 53 43 96 96 96 53 0 96-43 96-96l0-75-192 0z m-53-96l32 0 0-32c0-6 4-11 10-11 6 0 11 5 11 11l0 32 192 0 0-32c0-6 5-11 11-11 6 0 10 5 10 11l0 32 32 0c47 0 86-39 86-86l0-86c-57-5-101-49-106-106l-258 0c-5 57-49 101-106 106l0 86c0 47 39 86 86 86z m-86-224l0 31c45-5 80-40 85-85l-31 0c-30 0-54 24-54 54z m416-54l-31 0c5 45 40 80 85 85l0-31c0-30-24-54-54-54z m-384 171l32 0 0-32c0-6 5-11 11-11 6 0 11 5 11 11l0 32 352 0c6 0 10 5 10 11 0 6-4 10-10 10l-406 0c-6 0-10-4-10-10 0-6 4-11 10-11z"/>
<glyph unicode="&#58;" d="M400 256l-86 83-71-99-35 221-100-205-76 0 0-64 115 0 29 58 29-173 115 163 51-48 109 0 0 64z"/>
<glyph unicode="&#97;" d="M287 83c0-4 4-8 8-8l121 0c4 0 8 4 8 8l0 158c0 4-4 8-8 8-5 0-8-4-8-8l0-150-105 0 0 84c0 4-3 8-8 8l-78 0c-5 0-8-4-8-8l0-86-106 0 0 163c0 4-4 8-8 8-5 0-8-4-8-8l0-171c0-4 3-8 8-8l122 0c4 0 8 4 8 8l0 86 62 0z m164 193l-191 155c-3 2-7 2-10 0l-191-150c-3-2-4-7-1-11 3-3 8-4 11-1l186 146 186-152c2-1 3-1 5-1 3 0 5 1 6 3 3 3 3 8-1 11z"/>
<glyph unicode="&#99;" d="M437 224c-6 0-10-5-10-11l0-192-107 0 0 139-128 0 0-139-107 0 0 203c0 6-4 11-10 11-6 0-11-5-11-11l0-224 149 0 0 139 86 0 0-139 149 0 0 213c0 6-5 11-11 11z m72 18l-253 242-253-242c-4-4-4-10 0-15 4-4 11-4 15 0l238 228 238-228c2-2 5-3 7-3 3 0 6 1 8 3 4 5 4 11 0 15z m-168 185l64 0 0-64c0-6 5-11 11-11 6 0 11 5 11 11l0 85-86 0c-6 0-10-5-10-11 0-6 4-10 10-10z"/>
<glyph unicode="&#100;" d="M331 512c-6 0-11-5-11-11l0-490c0-6 5-11 11-11 6 0 10 5 10 11l0 170 54 0c6 0 10 5 10 11 0 155-30 320-74 320z m10-309l0 274c18-33 42-130 43-274z m-96 309c-6 0-10-5-10-11l0-106c0-26-19-48-43-53l0 159c0 6-5 11-11 11-6 0-10-5-10-11l0-159c-25 5-43 27-43 53l0 106c0 6-5 11-11 11-6 0-10-5-10-11l0-106c0-38 28-69 64-74l0-310c0-6 4-11 10-11 6 0 11 5 11 11l0 310c36 5 64 36 64 74l0 106c0 6-5 11-11 11z"/>
<glyph unicode="&#101;" d="M256 512c-94 0-171-77-171-171 0-90 156-316 162-326l9-12 9 12c6 10 162 236 162 326 0 94-77 171-171 171z m0-472c-33 50-149 229-149 301 0 83 67 150 149 150 82 0 149-67 149-150 0-72-116-251-149-301z m0 376c-41 0-75-33-75-75 0-41 34-74 75-74 41 0 75 33 75 74 0 42-34 75-75 75z m0-128c-29 0-53 24-53 53 0 30 24 54 53 54 29 0 53-24 53-54 0-29-24-53-53-53z"/>
<glyph unicode="&#102;" d="M384 267c-6 0-11-5-11-11l0-235-352 0 0 427 288 0c6 0 11 5 11 11 0 6-5 10-11 10l-309 0 0-469 395 0 0 256c0 6-5 11-11 11z m126 224c-6 13-18 21-31 21-8 0-16-3-22-10l-30-30-174-173c0-1-1-2-2-3l-30-60c-2-5-1-10 2-13 2-2 5-3 8-3 1 0 3 0 5 1l60 30c1 1 2 2 3 2l203 204c10 10 13 22 8 34z m-225-221l-30-15 15 30 164 165 16-16z m202 202l-22-22-15 15 22 22c2 3 5 4 7 4 5 0 9-4 11-8 2-4 1-7-3-11z"/>
<glyph unicode="&#103;" d="M0 512l0-512 512 0 0 512z m491-21l0-342-15 0-73 145c-7 16-23 26-41 26-17 0-32-9-40-23l-57-97c-16 20-52 56-94 56-53 0-92-81-103-107l-47 0 0 342z m-39-342l-361 0c16 33 47 86 80 86 47 0 86-59 87-60 2-3 5-5 9-4 4 0 7 2 9 5l64 110c5 8 13 13 22 13 9 0 18-6 22-14z m-431-128l0 107 470 0 0-107z m118 299l64 0c35 0 64 29 64 64 0 35-29 64-64 64-28 0-52-17-61-43-24 2-46-18-46-42 0-24 19-43 43-43z m0 64c2 0 5-1 7-2l13-4 2 13c3 21 21 36 42 36 23 0 42-19 42-43 0-24-19-43-42-43l-64 0c-12 0-22 10-22 22 0 11 10 21 22 21z"/>
<glyph unicode="&#104;" d="M256 165l-68-67c-10-10-23-16-38-16-14 0-27 6-37 16l-15 15c-21 20-21 54 0 75l98 98c10 10 23 16 37 16 15 0 28-6 38-16l15-15c4-4 11-4 15 0 4 4 4 11 0 15l-15 15c-14 14-33 22-53 22-20 0-38-8-52-22l-98-98c-30-29-30-76 0-105l15-15c14-15 32-22 52-22 20 0 39 7 53 22l68 67c4 5 4 11 0 15-4 5-11 5-15 0z m173 249l-15 15c-29 30-76 30-105 0l-68-67c-4-5-4-11 0-15 4-5 11-5 15 0l68 67c21 21 55 21 75 0l15-15c21-20 21-54 0-75l-98-98c-10-10-23-16-37-16-15 0-28 6-38 16-4 4-11 4-15 0-4-4-4-11 0-15 14-14 33-22 53-22 20 0 38 8 52 22l98 98c30 29 30 76 0 105z"/>
<glyph unicode="&#105;" d="M469 464l-69 0 0 32c0 9-7 16-16 16-9 0-16-7-16-16l0-32-96 0 0 32c0 9-7 16-16 16-9 0-16-7-16-16l0-32-96 0 0 32c0 9-7 16-16 16-9 0-16-7-16-16l0-32-69 0c-24 0-43-19-43-43l0-378c0-24 19-43 43-43l426 0c24 0 43 19 43 43l0 378c0 24-19 43-43 43z m11-421c0-6-5-11-11-11l-426 0c-6 0-11 5-11 11l0 378c0 6 5 11 11 11l69 0 0-32c0-9 7-16 16-16 9 0 16 7 16 16l0 32 96 0 0-32c0-9 7-16 16-16 9 0 16 7 16 16l0 32 96 0 0-32c0-9 7-16 16-16 9 0 16 7 16 16l0 32 69 0c6 0 11-5 11-11z m-368 277l64 0 0-48-64 0z m0-80l64 0 0-48-64 0z m0-80l64 0 0-48-64 0z m112 0l64 0 0-48-64 0z m0 80l64 0 0-48-64 0z m0 80l64 0 0-48-64 0z m112-160l64 0 0-48-64 0z m0 80l64 0 0-48-64 0z m0 80l64 0 0-48-64 0z"/>
<glyph unicode="&#110;" d="M368 512c-88 0-160-72-160-160 0-21 4-40 11-58l-194-194c-6-6-9-11-9-20l0-48c0-17 15-32 32-32l48 0c9 0 14 3 20 9l23 23 37 0c18 0 32 14 32 32l0 32 32 0c18 0 32 14 32 32l0 38 38 37c18-7 37-11 58-11 88 0 160 72 160 160 0 88-72 160-160 160z m0-288c-24 0-46 7-65 18l-5-5-18-18-31-31c-6-6-9-14-9-22l0-38-32 0c-18 0-32-14-32-32l0-32-37 0c-9 0-17-3-23-9l-23-23-45 0 0 46 187 186c0 0 0 0 0 0l23 23c-11 19-18 41-18 65 0 71 57 128 128 128 71 0 128-57 128-128 0-71-57-128-128-128z m93 156c-18 25-40 47-65 65-4 3-9 4-14 2-22-8-37-23-45-45-1-2-1-4-1-5 0-3 1-7 3-9 18-25 40-47 65-65 4-3 9-4 14-2 22 8 37 23 45 45 1 2 1 3 1 5 0 3-1 7-3 9z m-48-44c-24 17-44 37-61 61 6 17 18 29 35 35 24-17 44-38 61-61-6-17-18-29-35-35z"/>
<glyph unicode="&#113;" d="M256 320c18 0 32 14 32 32 0 17-14 32-32 32-17 0-32-15-32-32 0-18 15-32 32-32z m0 160c-123 0-224-101-224-224 0-124 101-224 224-224 124 0 224 100 224 224 0 123-100 224-224 224z m0-384c-88 0-160 71-160 160 0 88 72 160 160 160 89 0 160-72 160-160 0-89-71-160-160-160z m32 160c0 16-16 32-32 32-16 0-16 0-32 0-16 0-32-16-32-32l32 0c0-16 0-80 0-96 0-16 16-32 32-32 16 0 16 0 32 0 16 0 32 16 32 32l-32 0c0 16 0 80 0 96z"/>
</font>
</defs>
</svg>
